<?xml version="1.0"?>
<svg xmlns="http://www.w3.org/2000/svg" xmlns:xlink="http://www.w3.org/1999/xlink" id="Layer_1" data-name="Layer 1" viewBox="0 0 512 512" width="512" height="512"><defs><linearGradient id="linear-gradient" x1="256.049" y1="492.629" x2="256.049" y2="45.575" gradientUnits="userSpaceOnUse"><stop offset="0.322" stop-color="#a163f5"/><stop offset="0.466" stop-color="#b074ee"/><stop offset="0.752" stop-color="#d8a1dd"/><stop offset="0.898" stop-color="#efbad3"/></linearGradient><linearGradient id="linear-gradient-2" x1="256" y1="492.629" x2="256" y2="45.575" xlink:href="#linear-gradient"/></defs><title>Project Plan</title><path d="M256.049,184.618c-40.749,0-73.9,32.581-73.9,72.629s33.152,72.629,73.9,72.629,73.9-32.581,73.9-72.629S296.8,184.618,256.049,184.618Zm0,133.258c-34.133,0-61.9-27.2-61.9-60.629s27.768-60.629,61.9-60.629,61.9,27.2,61.9,60.629S290.181,317.876,256.049,317.876Z" style="fill:url(#linear-gradient)"/><path d="M469,190.666V89.139a34.451,34.451,0,0,0,28-33.594c0-18.888-15.608-34.254-34.793-34.254s-34.794,15.366-34.794,34.254A34.481,34.481,0,0,0,457,89.414V190.666a17.735,17.735,0,0,1-17.936,17.487H372.139a122.743,122.743,0,0,0-9.457-17.514l12.04-11.815a8.42,8.42,0,0,0,0-12.033l-26.453-25.958a8.565,8.565,0,0,0-11.939,0l-12.123,11.9a126.238,126.238,0,0,0-40.952-16.705V119.4a8.486,8.486,0,0,0-8.5-8.453H262.049V78.222a34.487,34.487,0,0,0,30.373-33.968C292.422,25.366,276.813,10,257.628,10s-34.793,15.366-34.793,34.254A34.434,34.434,0,0,0,250.049,77.68v33.263H237.343a8.486,8.486,0,0,0-8.5,8.453v16.627a126.229,126.229,0,0,0-40.952,16.705l-12.122-11.9a8.567,8.567,0,0,0-11.94,0l-26.455,25.958a8.421,8.421,0,0,0,0,12.034l12.04,11.814a122.749,122.749,0,0,0-9.458,17.514H73.729a17.735,17.735,0,0,1-17.936-17.487V89.279A34.461,34.461,0,0,0,84.587,55.545c0-18.888-15.608-34.254-34.794-34.254S15,36.657,15,55.545A34.461,34.461,0,0,0,43.793,89.279V190.666a29.748,29.748,0,0,0,29.936,29.487h61.7q-1.641,5.16-2.823,10.48H115.368a8.486,8.486,0,0,0-8.5,8.453V275.8a8.486,8.486,0,0,0,8.5,8.453h17.318a121.287,121.287,0,0,0,5.919,18.889H73.729a29.748,29.748,0,0,0-29.936,29.487V434.013A34.46,34.46,0,0,0,15,467.746C15,486.634,30.608,502,49.793,502s34.794-15.366,34.794-34.254a34.46,34.46,0,0,0-28.794-33.733V332.625a17.736,17.736,0,0,1,17.936-17.487H144.25q2.462,4.566,5.319,8.955l-12.193,11.964a8.42,8.42,0,0,0,0,12.034l26.455,25.959a8.567,8.567,0,0,0,11.938,0l12.365-12.133a126.235,126.235,0,0,0,40.71,16.554v17.015a8.486,8.486,0,0,0,8.5,8.453h12.706v30.074a34.461,34.461,0,0,0-28.794,33.733c0,18.888,15.609,34.254,34.794,34.254s34.793-15.366,34.793-34.254a34.46,34.46,0,0,0-28.793-33.733V403.939h12.705a8.486,8.486,0,0,0,8.5-8.453V378.471a126.2,126.2,0,0,0,40.709-16.555l12.366,12.134a8.568,8.568,0,0,0,11.939,0l26.453-25.958a8.421,8.421,0,0,0,0-12.034l-12.194-11.966q2.862-4.385,5.319-8.954h71.218A17.736,17.736,0,0,1,457,332.625V433.877a34.481,34.481,0,0,0-29.588,33.869c0,18.888,15.608,34.254,34.794,34.254S497,486.634,497,467.746a34.449,34.449,0,0,0-28-33.593V332.625a29.748,29.748,0,0,0-29.936-29.487H373.493a121.287,121.287,0,0,0,5.919-18.889h17.317a8.486,8.486,0,0,0,8.5-8.453v-36.71a8.486,8.486,0,0,0-8.5-8.453H379.5q-1.182-5.318-2.823-10.48h62.391A29.748,29.748,0,0,0,469,190.666ZM439.413,55.545c0-12.271,10.225-22.254,22.794-22.254S485,43.274,485,55.545,474.775,77.8,462.207,77.8,439.413,67.816,439.413,55.545ZM234.835,44.254C234.835,31.983,245.061,22,257.628,22s22.794,9.983,22.794,22.254S270.2,66.508,257.628,66.508,234.835,56.525,234.835,44.254ZM27,55.545c0-12.271,10.225-22.254,22.793-22.254s22.794,9.983,22.794,22.254S62.362,77.8,49.793,77.8,27,67.816,27,55.545Zm45.587,412.2C72.587,480.017,62.362,490,49.793,490S27,480.017,27,467.746s10.225-22.254,22.793-22.254S72.587,455.475,72.587,467.746Zm206.255,0c0,12.271-10.225,22.254-22.793,22.254s-22.794-9.983-22.794-22.254,10.225-22.254,22.794-22.254S278.842,455.475,278.842,467.746Zm206.158,0C485,480.017,474.775,490,462.207,490s-22.794-9.983-22.794-22.254,10.225-22.254,22.794-22.254S485,455.475,485,467.746ZM393.229,242.633v29.616H376.576a8.512,8.512,0,0,0-8.326,6.807,109.774,109.774,0,0,1-17.281,40.733A8.412,8.412,0,0,0,352,330.577l11.717,11.5L342.3,363.1l-11.919-11.7a8.573,8.573,0,0,0-10.663-1.018,114.465,114.465,0,0,1-41.563,16.882,8.478,8.478,0,0,0-6.9,8.291v16.384h-30.41V375.555a8.481,8.481,0,0,0-6.9-8.292,114.422,114.422,0,0,1-41.56-16.88,8.577,8.577,0,0,0-10.666,1.017L169.8,363.1l-21.422-21.021,11.718-11.5a8.413,8.413,0,0,0,1.034-10.787,109.771,109.771,0,0,1-17.282-40.734,8.511,8.511,0,0,0-8.326-6.806H118.869V242.633h16.577a8.5,8.5,0,0,0,8.331-6.835,109.606,109.606,0,0,1,5.679-19.257c.022-.05.042-.1.062-.151a110.834,110.834,0,0,1,11.463-21.469,8.417,8.417,0,0,0-1.045-10.772l-11.559-11.341L169.8,151.787l11.682,11.463a8.569,8.569,0,0,0,10.679,1.006,114.426,114.426,0,0,1,41.782-17.026,8.478,8.478,0,0,0,6.9-8.291v-16h30.41v16a8.477,8.477,0,0,0,6.9,8.291,114.425,114.425,0,0,1,41.78,17.025,8.569,8.569,0,0,0,10.682-1.006L342.3,151.787l21.422,21.021-11.557,11.341a8.417,8.417,0,0,0-1.047,10.772,110.818,110.818,0,0,1,11.394,21.3c.052.141.107.28.168.415A109.5,109.5,0,0,1,368.32,235.8a8.5,8.5,0,0,0,8.331,6.837Z" style="fill:url(#linear-gradient-2)"/></svg>
